<?xml version="1.0" encoding="UTF-8" standalone="no"?>
<svg
   viewBox="0 0 896.02209 341.10498"
   width="896.02209"
   height="341.10498"
   role="img"
   aria-labelledby="title desc"
   version="1.1"
   id="svg65"
   sodipodi:docname="guardians-user-journey.svg"
   inkscape:version="1.4.4 (dcaf3e7d9e, 2026-05-05)"
   xmlns:inkscape="http://www.inkscape.org/namespaces/inkscape"
   xmlns:sodipodi="http://sodipodi.sourceforge.net/DTD/sodipodi-0.dtd"
   xmlns="http://www.w3.org/2000/svg"
   xmlns:svg="http://www.w3.org/2000/svg">
  <sodipodi:namedview
     id="namedview65"
     pagecolor="#ffffff"
     bordercolor="#000000"
     borderopacity="0.25"
     inkscape:showpageshadow="2"
     inkscape:pageopacity="0.0"
     inkscape:pagecheckerboard="0"
     inkscape:deskcolor="#d1d1d1"
     inkscape:zoom="1.8995135"
     inkscape:cx="442.48172"
     inkscape:cy="200.05122"
     inkscape:window-width="2560"
     inkscape:window-height="1318"
     inkscape:window-x="0"
     inkscape:window-y="0"
     inkscape:window-maximized="1"
     inkscape:current-layer="svg65" />
  <title
     id="title">A user journey for Australian human omics research</title>
  <desc
     id="desc">A five-stage user journey diagram from Explore to Sign in, Request, Access and Analyse. The diagram uses vector icons and text labels to show a researcher discovering data, authenticating, requesting data access, receiving committee and custodian approval, and analysing study-specific data.</desc>
  <defs
     id="defs6">
    <style
       id="style1"><![CDATA[
      .font { font-family: "Arial Rounded MT Bold", "Trebuchet MS", Arial, sans-serif; }
      .label { font-family: Arial, Helvetica, sans-serif; font-size: 12px; fill: #111; }
      .small { font-family: Arial, Helvetica, sans-serif; font-size: 10px; fill: #111; }
      .bubbleText { font-family: Arial, Helvetica, sans-serif; font-size: 9.4px; font-style: italic; fill: #fff; }
      .boxText { font-family: Arial, Helvetica, sans-serif; font-size: 10px; fill: #fff; }
      .icon { fill: none; stroke: #000; stroke-width: 4.5; stroke-linecap: round; stroke-linejoin: round; }
      .iconFill { fill: #fff; stroke: #000; stroke-width: 4.5; stroke-linecap: round; stroke-linejoin: round; }
      .thin { stroke-width: 3; }
      .flow { fill: none; stroke: #24334f; stroke-width: .5; stroke-linecap: round; }
    ]]></style>
    <!-- 1. Analytics/search icon, replacing embedded PNG image95 -->
    <symbol
       id="icon-analytics-search"
       viewBox="0 0 1200 1200">
      <path
         d="M62.0,145.0 L60.0,834.0 L64.0,840.0 L688.0,843.0 L705.0,862.0 L736.0,885.0 L774.0,901.0 L807.0,907.0 L863.0,902.0 L913.0,879.0 L949.0,915.0 L951.0,929.0 L961.0,945.0 L1068.0,1051.0 L1099.0,1059.0 L1119.0,1052.0 L1130.0,1042.0 L1140.0,1013.0 L1130.0,985.0 L1022.0,877.0 L996.0,868.0 L960.0,832.0 L982.0,785.0 L988.0,729.0 L982.0,694.0 L970.0,663.0 L952.0,635.0 L926.0,609.0 L926.0,151.0 L920.0,142.0 L70.0,140.0 Z M86.0,299.0 L900.0,300.0 L898.0,591.0 L851.0,574.0 L849.0,448.0 L841.0,443.0 L765.0,443.0 L755.0,453.0 L753.0,586.0 L737.0,594.0 L736.0,553.0 L725.0,541.0 L650.0,541.0 L639.0,551.0 L639.0,752.0 L654.0,763.0 L671.0,816.0 L85.0,816.0 Z M86.0,166.0 L900.0,167.0 L899.0,274.0 L85.0,273.0 Z M800.0,598.0 L832.0,597.0 L859.0,602.0 L909.0,628.0 L943.0,667.0 L954.0,690.0 L962.0,724.0 L957.0,779.0 L945.0,808.0 L929.0,831.0 L889.0,864.0 L836.0,881.0 L783.0,877.0 L732.0,851.0 L697.0,811.0 L679.0,760.0 L678.0,727.0 L683.0,700.0 L706.0,654.0 L730.0,629.0 L752.0,614.0 Z M228.0,318.0 L178.0,332.0 L137.0,365.0 L112.0,413.0 L108.0,463.0 L124.0,512.0 L154.0,548.0 L176.0,563.0 L204.0,574.0 L247.0,578.0 L297.0,564.0 L338.0,531.0 L363.0,483.0 L367.0,434.0 L351.0,384.0 L321.0,348.0 L295.0,331.0 L271.0,322.0 Z M812.0,613.0 L768.0,624.0 L724.0,657.0 L698.0,706.0 L694.0,751.0 L710.0,802.0 L737.0,835.0 L773.0,857.0 L825.0,866.0 L872.0,855.0 L897.0,840.0 L917.0,821.0 L942.0,774.0 L946.0,725.0 L932.0,680.0 L901.0,642.0 L856.0,618.0 Z M809.0,639.0 L850.0,643.0 L888.0,665.0 L913.0,700.0 L921.0,734.0 L917.0,768.0 L899.0,802.0 L870.0,827.0 L829.0,840.0 L791.0,836.0 L756.0,817.0 L733.0,790.0 L720.0,752.0 L723.0,712.0 L741.0,677.0 L770.0,652.0 Z M843.0,360.0 L831.0,344.0 L819.0,337.0 L789.0,336.0 L776.0,343.0 L762.0,362.0 L763.0,394.0 L711.0,439.0 L682.0,432.0 L663.0,439.0 L651.0,451.0 L615.0,439.0 L609.0,416.0 L594.0,401.0 L575.0,395.0 L553.0,399.0 L531.0,422.0 L529.0,455.0 L481.0,490.0 L468.0,483.0 L448.0,482.0 L423.0,496.0 L413.0,516.0 L415.0,541.0 L421.0,552.0 L440.0,566.0 L472.0,566.0 L494.0,547.0 L499.0,533.0 L497.0,511.0 L546.0,474.0 L563.0,482.0 L580.0,482.0 L609.0,464.0 L643.0,475.0 L649.0,497.0 L666.0,514.0 L681.0,519.0 L702.0,517.0 L717.0,508.0 L728.0,492.0 L728.0,458.0 L780.0,414.0 L792.0,420.0 L809.0,421.0 L824.0,416.0 L837.0,405.0 L846.0,385.0 Z M532.0,505.0 L523.0,516.0 L524.0,754.0 L534.0,762.0 L609.0,762.0 L620.0,751.0 L620.0,515.0 L611.0,505.0 Z M219.0,345.0 L225.0,346.0 L225.0,452.0 L278.0,543.0 L256.0,551.0 L214.0,550.0 L174.0,531.0 L148.0,502.0 L134.0,464.0 L135.0,427.0 L152.0,388.0 L183.0,359.0 Z M414.0,592.0 L408.0,599.0 L408.0,753.0 L418.0,762.0 L496.0,761.0 L504.0,752.0 L504.0,600.0 L495.0,591.0 Z M901.0,697.0 L889.0,681.0 L865.0,677.0 L851.0,685.0 L805.0,731.0 L779.0,708.0 L765.0,706.0 L751.0,711.0 L740.0,725.0 L739.0,743.0 L746.0,756.0 L785.0,795.0 L795.0,801.0 L812.0,802.0 L823.0,797.0 L896.0,724.0 L902.0,710.0 Z M550.0,530.0 L594.0,531.0 L593.0,736.0 L549.0,735.0 Z M982.0,897.0 L993.0,893.0 L1004.0,896.0 L1111.0,1003.0 L1114.0,1016.0 L1105.0,1030.0 L1090.0,1033.0 L1082.0,1029.0 L978.0,925.0 L974.0,910.0 Z M251.0,345.0 L279.0,352.0 L313.0,376.0 L334.0,408.0 L340.0,435.0 L250.0,434.0 Z M434.0,616.0 L478.0,617.0 L477.0,736.0 L433.0,735.0 Z M446.0,216.0 L449.0,229.0 L458.0,233.0 L631.0,233.0 L643.0,223.0 L641.0,212.0 L633.0,207.0 L455.0,207.0 Z M781.0,469.0 L826.0,470.0 L825.0,572.0 L780.0,575.0 Z M209.0,747.0 L211.0,756.0 L220.0,762.0 L356.0,762.0 L367.0,753.0 L365.0,741.0 L357.0,736.0 L220.0,736.0 Z M108.0,692.0 L110.0,704.0 L117.0,709.0 L256.0,709.0 L266.0,698.0 L264.0,689.0 L254.0,683.0 L119.0,683.0 Z M209.0,642.0 L218.0,656.0 L358.0,656.0 L367.0,647.0 L367.0,639.0 L359.0,631.0 L218.0,631.0 Z M262.0,461.0 L341.0,463.0 L328.0,500.0 L301.0,530.0 Z M710.0,568.0 L710.0,613.0 L683.0,642.0 L666.0,672.0 L666.0,567.0 Z M288.0,694.0 L290.0,703.0 L298.0,709.0 L358.0,709.0 L367.0,700.0 L365.0,688.0 L355.0,683.0 L300.0,683.0 Z M108.0,746.0 L110.0,756.0 L119.0,762.0 L175.0,762.0 L186.0,753.0 L184.0,741.0 L176.0,736.0 L118.0,736.0 Z M108.0,639.0 L109.0,650.0 L117.0,656.0 L178.0,656.0 L187.0,646.0 L185.0,636.0 L178.0,631.0 L116.0,631.0 Z M797.0,220.0 L805.0,232.0 L840.0,233.0 L851.0,226.0 L852.0,216.0 L842.0,207.0 L807.0,207.0 Z M693.0,217.0 L695.0,227.0 L705.0,233.0 L739.0,232.0 L747.0,222.0 L745.0,213.0 L737.0,207.0 L703.0,207.0 Z M876.0,704.0 L805.0,777.0 L764.0,737.0 L769.0,732.0 L797.0,760.0 L810.0,762.0 L871.0,702.0 Z M454.0,507.0 L467.0,511.0 L474.0,524.0 L471.0,535.0 L459.0,543.0 L447.0,541.0 L438.0,529.0 L441.0,515.0 Z M568.0,421.0 L580.0,423.0 L589.0,434.0 L587.0,448.0 L574.0,457.0 L562.0,454.0 L554.0,443.0 L556.0,430.0 Z M799.0,360.0 L812.0,362.0 L821.0,374.0 L819.0,386.0 L808.0,395.0 L794.0,393.0 L785.0,380.0 L788.0,368.0 Z M683.0,458.0 L698.0,461.0 L705.0,471.0 L702.0,486.0 L692.0,493.0 L678.0,491.0 L670.0,481.0 L672.0,466.0 Z M944.0,853.0 L967.0,876.0 L957.0,886.0 L934.0,863.0 Z"
         fill="#000000"
         fill-rule="evenodd"
         id="path1" />
    </symbol>
    <symbol
       id="icon-cloud-data"
       viewBox="0 0 1200 1200">
      <path
         d="M653.0,244.0 L607.0,245.0 L566.0,255.0 L515.0,282.0 L484.0,311.0 L446.0,316.0 L404.0,336.0 L369.0,373.0 L352.0,415.0 L311.0,429.0 L274.0,459.0 L253.0,493.0 L244.0,529.0 L245.0,560.0 L252.0,586.0 L259.0,599.0 L280.0,615.0 L452.0,619.0 L449.0,769.0 L437.0,778.0 L379.0,778.0 L366.0,751.0 L342.0,733.0 L313.0,729.0 L291.0,736.0 L274.0,750.0 L265.0,765.0 L261.0,797.0 L274.0,826.0 L303.0,845.0 L327.0,847.0 L356.0,835.0 L373.0,815.0 L442.0,815.0 L470.0,802.0 L481.0,789.0 L489.0,767.0 L490.0,618.0 L581.0,619.0 L580.0,827.0 L552.0,848.0 L543.0,869.0 L542.0,889.0 L548.0,909.0 L560.0,925.0 L579.0,937.0 L595.0,941.0 L617.0,939.0 L637.0,929.0 L652.0,912.0 L660.0,888.0 L659.0,870.0 L651.0,850.0 L640.0,837.0 L620.0,826.0 L620.0,618.0 L731.0,619.0 L732.0,769.0 L743.0,794.0 L759.0,808.0 L779.0,815.0 L849.0,816.0 L872.0,840.0 L908.0,847.0 L928.0,841.0 L945.0,828.0 L960.0,794.0 L958.0,772.0 L948.0,752.0 L931.0,737.0 L907.0,729.0 L885.0,731.0 L866.0,740.0 L851.0,756.0 L842.0,778.0 L784.0,778.0 L772.0,770.0 L770.0,618.0 L875.0,618.0 L898.0,608.0 L909.0,596.0 L916.0,578.0 L916.0,520.0 L901.0,482.0 L885.0,460.0 L860.0,438.0 L831.0,423.0 L817.0,362.0 L800.0,330.0 L780.0,305.0 L751.0,280.0 L718.0,261.0 Z M881.0,536.0 L879.0,572.0 L869.0,581.0 L296.0,581.0 L288.0,575.0 L281.0,546.0 L287.0,509.0 L303.0,483.0 L339.0,457.0 L387.0,449.0 L394.0,406.0 L405.0,387.0 L424.0,368.0 L464.0,350.0 L502.0,349.0 L529.0,319.0 L553.0,302.0 L579.0,290.0 L623.0,281.0 L684.0,288.0 L716.0,302.0 L739.0,318.0 L763.0,343.0 L781.0,373.0 L792.0,412.0 L792.0,450.0 L819.0,458.0 L850.0,478.0 L868.0,500.0 Z M909.0,127.0 L816.0,78.0 L715.0,47.0 L628.0,36.0 L514.0,42.0 L411.0,68.0 L318.0,111.0 L231.0,173.0 L162.0,244.0 L101.0,336.0 L61.0,432.0 L40.0,528.0 L36.0,629.0 L48.0,720.0 L69.0,793.0 L107.0,876.0 L156.0,948.0 L150.0,966.0 L150.0,987.0 L158.0,1008.0 L170.0,1022.0 L187.0,1032.0 L206.0,1036.0 L240.0,1027.0 L263.0,1000.0 L266.0,962.0 L256.0,941.0 L234.0,923.0 L218.0,918.0 L184.0,923.0 L136.0,851.0 L109.0,793.0 L87.0,723.0 L75.0,650.0 L73.0,581.0 L81.0,507.0 L106.0,416.0 L141.0,341.0 L191.0,268.0 L262.0,196.0 L336.0,144.0 L416.0,106.0 L507.0,81.0 L563.0,74.0 L620.0,73.0 L714.0,85.0 L810.0,116.0 L896.0,162.0 L909.0,159.0 L917.0,148.0 L917.0,138.0 Z M1029.0,174.0 L1001.0,162.0 L983.0,162.0 L963.0,169.0 L948.0,181.0 L937.0,199.0 L934.0,232.0 L943.0,254.0 L964.0,273.0 L988.0,280.0 L1012.0,276.0 L1018.0,279.0 L1051.0,327.0 L1079.0,380.0 L1102.0,440.0 L1118.0,505.0 L1126.0,617.0 L1118.0,692.0 L1093.0,783.0 L1058.0,858.0 L1008.0,931.0 L937.0,1003.0 L863.0,1055.0 L783.0,1093.0 L697.0,1117.0 L648.0,1124.0 L580.0,1126.0 L485.0,1114.0 L401.0,1088.0 L303.0,1037.0 L290.0,1040.0 L282.0,1051.0 L282.0,1061.0 L290.0,1072.0 L383.0,1121.0 L484.0,1152.0 L572.0,1163.0 L685.0,1157.0 L788.0,1131.0 L881.0,1088.0 L968.0,1026.0 L1036.0,956.0 L1098.0,863.0 L1138.0,767.0 L1159.0,671.0 L1163.0,570.0 L1151.0,479.0 L1130.0,406.0 L1092.0,323.0 L1044.0,252.0 L1051.0,212.0 L1043.0,190.0 Z M900.0,766.0 L913.0,770.0 L923.0,787.0 L919.0,800.0 L903.0,810.0 L886.0,804.0 L879.0,791.0 L882.0,777.0 Z M319.0,766.0 L332.0,770.0 L341.0,783.0 L338.0,800.0 L322.0,810.0 L307.0,806.0 L298.0,792.0 L303.0,774.0 Z M985.0,200.0 L1002.0,201.0 L1014.0,217.0 L1011.0,232.0 L998.0,242.0 L982.0,240.0 L971.0,226.0 L972.0,212.0 Z M204.0,955.0 L220.0,958.0 L230.0,972.0 L227.0,988.0 L214.0,998.0 L198.0,996.0 L187.0,982.0 L190.0,965.0 Z M595.0,861.0 L612.0,863.0 L622.0,876.0 L619.0,894.0 L607.0,903.0 L589.0,900.0 L579.0,885.0 L582.0,871.0 Z"
         fill="#000000"
         fill-rule="evenodd"
         id="path2" />
    </symbol>
    <symbol
       id="icon-researcher-dashboard"
       viewBox="0 0 1200 1200">
      <path
         d="M1163.0,4.0 L1150.0,0.0 L329.0,0.0 L308.0,8.0 L293.0,21.0 L280.0,49.0 L280.0,95.0 L263.0,107.0 L239.0,134.0 L227.0,158.0 L220.0,189.0 L170.0,222.0 L127.0,269.0 L101.0,315.0 L85.0,364.0 L80.0,398.0 L80.0,441.0 L88.0,483.0 L80.0,508.0 L84.0,547.0 L107.0,580.0 L140.0,597.0 L155.0,657.0 L183.0,704.0 L209.0,731.0 L240.0,753.0 L239.0,801.0 L186.0,810.0 L120.0,840.0 L63.0,889.0 L31.0,935.0 L11.0,982.0 L0.0,1038.0 L1.0,1137.0 L12.0,1163.0 L29.0,1182.0 L68.0,1199.0 L611.0,1199.0 L627.0,1195.0 L662.0,1170.0 L679.0,1131.0 L677.0,1021.0 L668.0,982.0 L650.0,940.0 L948.0,939.0 L966.0,930.0 L977.0,914.0 L978.0,883.0 L961.0,848.0 L929.0,825.0 L895.0,818.0 L870.0,804.0 L850.0,781.0 L843.0,759.0 L1149.0,759.0 L1171.0,751.0 L1186.0,738.0 L1199.0,709.0 L1199.0,50.0 L1186.0,21.0 Z M322.0,49.0 L338.0,39.0 L1150.0,42.0 L1160.0,58.0 L1159.0,620.0 L536.0,618.0 L540.0,598.0 L569.0,583.0 L583.0,569.0 L599.0,531.0 L599.0,508.0 L591.0,485.0 L599.0,440.0 L599.0,398.0 L583.0,327.0 L560.0,281.0 L530.0,242.0 L498.0,213.0 L459.0,188.0 L450.0,152.0 L428.0,118.0 L410.0,102.0 L382.0,87.0 L354.0,80.0 L319.0,80.0 Z M44.0,1013.0 L60.0,966.0 L90.0,919.0 L132.0,880.0 L173.0,857.0 L209.0,845.0 L242.0,841.0 L253.0,870.0 L280.0,900.0 L313.0,916.0 L350.0,919.0 L375.0,913.0 L399.0,900.0 L420.0,879.0 L439.0,840.0 L506.0,857.0 L547.0,880.0 L581.0,910.0 L607.0,944.0 L625.0,980.0 L636.0,1018.0 L639.0,1128.0 L622.0,1153.0 L601.0,1160.0 L71.0,1159.0 L57.0,1153.0 L40.0,1128.0 L39.0,1054.0 Z M316.0,340.0 L322.0,341.0 L340.0,374.0 L359.0,388.0 L388.0,400.0 L459.0,417.0 L485.0,429.0 L496.0,441.0 L505.0,465.0 L517.0,476.0 L547.0,490.0 L560.0,516.0 L559.0,529.0 L550.0,546.0 L519.0,562.0 L505.0,575.0 L489.0,638.0 L462.0,683.0 L419.0,719.0 L393.0,731.0 L359.0,739.0 L331.0,740.0 L292.0,733.0 L260.0,719.0 L236.0,702.0 L213.0,678.0 L193.0,645.0 L174.0,575.0 L160.0,562.0 L132.0,549.0 L119.0,523.0 L120.0,510.0 L129.0,493.0 L172.0,467.0 L193.0,407.0 L220.0,376.0 L260.0,353.0 Z M121.0,389.0 L133.0,342.0 L148.0,310.0 L172.0,276.0 L202.0,247.0 L230.0,228.0 L280.0,207.0 L318.0,200.0 L369.0,201.0 L411.0,211.0 L450.0,229.0 L480.0,250.0 L513.0,284.0 L534.0,316.0 L552.0,361.0 L559.0,399.0 L557.0,449.0 L539.0,442.0 L524.0,411.0 L492.0,387.0 L380.0,354.0 L365.0,341.0 L356.0,319.0 L346.0,308.0 L325.0,300.0 L263.0,310.0 L203.0,339.0 L160.0,384.0 L146.0,413.0 L140.0,441.0 L121.0,448.0 Z M985.0,80.0 L938.0,96.0 L905.0,125.0 L883.0,169.0 L880.0,214.0 L895.0,259.0 L925.0,294.0 L966.0,315.0 L1014.0,319.0 L1061.0,303.0 L1094.0,274.0 L1115.0,233.0 L1119.0,185.0 L1103.0,138.0 L1074.0,105.0 L1030.0,83.0 Z M482.0,719.0 L503.0,695.0 L524.0,659.0 L1160.0,660.0 L1159.0,705.0 L1151.0,716.0 L1141.0,720.0 Z M586.0,860.0 L901.0,859.0 L922.0,866.0 L933.0,877.0 L939.0,900.0 L625.0,900.0 Z M282.0,771.0 L321.0,779.0 L358.0,779.0 L400.0,771.0 L399.0,830.0 L385.0,859.0 L361.0,876.0 L342.0,880.0 L318.0,876.0 L300.0,865.0 L288.0,851.0 L280.0,830.0 Z M539.0,178.0 L544.0,193.0 L554.0,199.0 L805.0,199.0 L819.0,185.0 L817.0,169.0 L805.0,160.0 L554.0,160.0 L544.0,166.0 Z M439.0,800.0 L440.0,759.0 L637.0,760.0 L624.0,788.0 L606.0,806.0 L586.0,817.0 L542.0,829.0 L490.0,809.0 Z M651.0,819.0 L670.0,789.0 L678.0,760.0 L801.0,760.0 L809.0,789.0 L828.0,819.0 Z M1094.0,360.0 L1080.0,374.0 L1080.0,565.0 L1089.0,577.0 L1105.0,579.0 L1119.0,565.0 L1119.0,374.0 L1110.0,362.0 Z M1014.0,400.0 L1000.0,414.0 L1000.0,565.0 L1009.0,577.0 L1025.0,579.0 L1039.0,565.0 L1039.0,414.0 L1030.0,402.0 Z M774.0,400.0 L760.0,414.0 L760.0,565.0 L769.0,577.0 L785.0,579.0 L799.0,565.0 L799.0,414.0 L790.0,402.0 Z M934.0,440.0 L920.0,454.0 L920.0,565.0 L929.0,577.0 L945.0,579.0 L959.0,565.0 L959.0,454.0 L950.0,442.0 Z M979.0,122.0 L980.0,191.0 L931.0,240.0 L919.0,202.0 L926.0,167.0 L946.0,140.0 Z M1077.0,220.0 L1059.0,253.0 L1027.0,275.0 L987.0,279.0 L959.0,268.0 L1008.0,219.0 Z M266.0,168.0 L278.0,148.0 L293.0,134.0 L309.0,125.0 L336.0,119.0 L361.0,122.0 L383.0,132.0 L412.0,165.0 L411.0,170.0 L371.0,161.0 L318.0,160.0 Z M694.0,460.0 L680.0,474.0 L680.0,565.0 L689.0,577.0 L705.0,579.0 L719.0,565.0 L719.0,474.0 L710.0,462.0 Z M600.0,254.0 L602.0,270.0 L614.0,279.0 L705.0,279.0 L719.0,265.0 L717.0,249.0 L705.0,240.0 L614.0,240.0 Z M854.0,480.0 L840.0,494.0 L840.0,565.0 L849.0,577.0 L865.0,579.0 L879.0,565.0 L879.0,494.0 L870.0,482.0 Z M1020.0,122.0 L1054.0,141.0 L1068.0,158.0 L1077.0,179.0 L1019.0,179.0 Z"
         fill="#000000"
         fill-rule="evenodd"
         id="path3" />
    </symbol>
    <symbol
       id="icon-dac-database"
       viewBox="0 0 1200 1200">
      <path
         d="M1103.0,189.0 L1078.0,166.0 L1040.0,141.0 L948.0,103.0 L830.0,78.0 L710.0,70.0 L595.0,76.0 L482.0,97.0 L399.0,126.0 L357.0,148.0 L318.0,177.0 L289.0,212.0 L275.0,251.0 L273.0,527.0 L173.0,585.0 L168.0,599.0 L170.0,610.0 L178.0,619.0 L238.0,661.0 L233.0,701.0 L243.0,751.0 L234.0,771.0 L234.0,789.0 L282.0,897.0 L153.0,949.0 L108.0,973.0 L94.0,1003.0 L64.0,1110.0 L68.0,1122.0 L81.0,1129.0 L697.0,1129.0 L706.0,1126.0 L714.0,1114.0 L703.0,1052.0 L815.0,1046.0 L920.0,1027.0 L1017.0,993.0 L1054.0,973.0 L1089.0,947.0 L1123.0,905.0 L1135.0,859.0 L1135.0,263.0 L1128.0,228.0 Z M322.0,260.0 L332.0,233.0 L362.0,202.0 L393.0,182.0 L455.0,155.0 L515.0,138.0 L588.0,125.0 L726.0,118.0 L804.0,123.0 L876.0,134.0 L939.0,150.0 L990.0,169.0 L1033.0,192.0 L1066.0,219.0 L1084.0,247.0 L1087.0,282.0 L1070.0,310.0 L1043.0,333.0 L1004.0,355.0 L943.0,378.0 L878.0,394.0 L803.0,405.0 L663.0,409.0 L526.0,393.0 L466.0,378.0 L414.0,359.0 L369.0,335.0 L339.0,310.0 L323.0,285.0 Z M323.0,344.0 L373.0,379.0 L461.0,414.0 L551.0,434.0 L666.0,445.0 L792.0,442.0 L914.0,423.0 L1018.0,388.0 L1055.0,368.0 L1086.0,344.0 L1087.0,488.0 L1062.0,520.0 L1023.0,548.0 L969.0,573.0 L915.0,590.0 L834.0,606.0 L763.0,613.0 L602.0,608.0 L604.0,591.0 L590.0,578.0 L428.0,487.0 L404.0,481.0 L369.0,481.0 L346.0,487.0 L323.0,500.0 Z M1086.0,546.0 L1087.0,684.0 L1075.0,703.0 L1051.0,726.0 L997.0,758.0 L893.0,792.0 L786.0,808.0 L655.0,810.0 L539.0,795.0 L540.0,769.0 L532.0,750.0 L541.0,700.0 L537.0,660.0 L558.0,639.0 L648.0,649.0 L739.0,650.0 L866.0,637.0 L929.0,623.0 L997.0,600.0 L1052.0,572.0 Z M1086.0,743.0 L1087.0,862.0 L1075.0,892.0 L1046.0,921.0 L1011.0,943.0 L915.0,979.0 L805.0,999.0 L689.0,1003.0 L679.0,977.0 L667.0,965.0 L490.0,894.0 L524.0,829.0 L595.0,841.0 L683.0,847.0 L755.0,846.0 L839.0,838.0 L908.0,825.0 L981.0,803.0 L1036.0,778.0 Z M296.0,716.0 L358.0,729.0 L425.0,728.0 L477.0,719.0 L503.0,772.0 L504.0,787.0 L468.0,867.0 L432.0,908.0 L402.0,922.0 L371.0,922.0 L343.0,909.0 L315.0,880.0 L293.0,841.0 L270.0,786.0 L270.0,775.0 Z M214.0,598.0 L354.0,523.0 L378.0,516.0 L416.0,521.0 L560.0,598.0 L526.0,614.0 L501.0,649.0 L271.0,647.0 L249.0,615.0 Z M417.0,1021.0 L427.0,1001.0 L481.0,1054.0 L496.0,1051.0 L519.0,950.0 L525.0,946.0 L647.0,995.0 L660.0,1030.0 L673.0,1093.0 L437.0,1092.0 Z M353.0,1020.0 L332.0,1092.0 L106.0,1092.0 L135.0,997.0 L247.0,949.0 L275.0,1051.0 L291.0,1053.0 L322.0,1015.0 L341.0,999.0 Z M272.0,671.0 L495.0,668.0 L503.0,674.0 L483.0,689.0 L449.0,702.0 L406.0,709.0 L363.0,709.0 L303.0,697.0 L282.0,685.0 Z M342.0,548.0 L341.0,596.0 L366.0,624.0 L389.0,633.0 L425.0,606.0 L431.0,592.0 L431.0,553.0 L427.0,546.0 L348.0,544.0 Z M456.0,921.0 L498.0,936.0 L501.0,941.0 L481.0,1024.0 L442.0,988.0 L409.0,969.0 L442.0,940.0 Z M315.0,922.0 L363.0,968.0 L327.0,984.0 L289.0,1022.0 L270.0,940.0 Z M372.0,1032.0 L400.0,1034.0 L415.0,1093.0 L353.0,1092.0 Z M362.0,564.0 L410.0,565.0 L410.0,592.0 L389.0,610.0 L382.0,610.0 L361.0,591.0 Z M362.0,991.0 L402.0,989.0 L407.0,996.0 L398.0,1012.0 L376.0,1013.0 L367.0,1005.0 Z M363.0,942.0 L410.0,942.0 L387.0,960.0 Z M503.0,703.0 L497.0,735.0 L487.0,713.0 Z M271.0,702.0 L283.0,713.0 L276.0,735.0 Z"
         fill="#000000"
         fill-rule="evenodd"
         id="path4" />
    </symbol>
    <symbol
       id="icon-custodian"
       viewBox="0 0 1200 1200">
      <path
         d="M559.0,5.0 L521.0,23.0 L488.0,54.0 L470.0,85.0 L461.0,119.0 L420.0,151.0 L387.0,189.0 L361.0,235.0 L348.0,272.0 L340.0,318.0 L340.0,361.0 L348.0,403.0 L340.0,428.0 L344.0,467.0 L367.0,500.0 L400.0,517.0 L408.0,558.0 L421.0,590.0 L448.0,630.0 L500.0,673.0 L499.0,701.0 L446.0,710.0 L380.0,740.0 L323.0,789.0 L291.0,835.0 L271.0,882.0 L260.0,938.0 L262.0,1158.0 L281.0,1186.0 L310.0,1199.0 L898.0,1197.0 L926.0,1178.0 L939.0,1149.0 L939.0,939.0 L934.0,905.0 L920.0,860.0 L885.0,800.0 L831.0,748.0 L771.0,716.0 L699.0,700.0 L699.0,673.0 L730.0,651.0 L753.0,628.0 L774.0,598.0 L793.0,553.0 L799.0,518.0 L829.0,503.0 L854.0,470.0 L859.0,428.0 L851.0,403.0 L859.0,360.0 L859.0,318.0 L851.0,272.0 L838.0,235.0 L814.0,192.0 L780.0,152.0 L738.0,119.0 L721.0,69.0 L690.0,32.0 L656.0,11.0 L628.0,2.0 L583.0,0.0 Z M380.0,431.0 L387.0,416.0 L407.0,401.0 L445.0,402.0 L440.0,440.0 L450.0,467.0 L472.0,489.0 L499.0,499.0 L529.0,497.0 L554.0,484.0 L575.0,455.0 L579.0,423.0 L587.0,420.0 L618.0,421.0 L622.0,449.0 L635.0,474.0 L652.0,489.0 L679.0,499.0 L715.0,495.0 L744.0,474.0 L759.0,440.0 L754.0,399.0 L788.0,400.0 L803.0,407.0 L817.0,425.0 L819.0,448.0 L803.0,472.0 L779.0,482.0 L765.0,495.0 L747.0,563.0 L730.0,593.0 L707.0,619.0 L683.0,637.0 L654.0,651.0 L622.0,659.0 L585.0,660.0 L554.0,654.0 L521.0,640.0 L480.0,607.0 L451.0,561.0 L434.0,495.0 L387.0,463.0 L380.0,448.0 Z M400.0,775.0 L383.0,821.0 L382.0,851.0 L400.0,874.0 L427.0,880.0 L405.0,924.0 L407.0,951.0 L424.0,971.0 L580.0,1109.0 L579.0,1160.0 L318.0,1160.0 L301.0,1148.0 L299.0,954.0 L307.0,901.0 L321.0,864.0 L343.0,828.0 L368.0,800.0 Z M799.0,775.0 L831.0,800.0 L856.0,828.0 L878.0,864.0 L892.0,901.0 L900.0,955.0 L898.0,1148.0 L881.0,1160.0 L836.0,1158.0 L837.0,1085.0 L822.0,1066.0 L799.0,1059.0 L797.0,1029.0 L788.0,1021.0 L774.0,1020.0 L761.0,1031.0 L759.0,1060.0 L737.0,1066.0 L722.0,1085.0 L722.0,1160.0 L619.0,1159.0 L619.0,1109.0 L775.0,971.0 L793.0,948.0 L794.0,925.0 L772.0,880.0 L799.0,874.0 L817.0,851.0 L817.0,826.0 Z M381.0,309.0 L393.0,262.0 L408.0,230.0 L432.0,196.0 L466.0,164.0 L490.0,148.0 L540.0,127.0 L578.0,120.0 L630.0,121.0 L677.0,133.0 L709.0,148.0 L744.0,173.0 L775.0,206.0 L791.0,230.0 L812.0,280.0 L819.0,318.0 L819.0,360.0 L816.0,369.0 L799.0,362.0 L792.0,332.0 L778.0,303.0 L736.0,259.0 L691.0,235.0 L632.0,221.0 L547.0,224.0 L508.0,235.0 L475.0,251.0 L448.0,271.0 L425.0,297.0 L407.0,332.0 L400.0,362.0 L381.0,368.0 Z M463.0,313.0 L494.0,286.0 L534.0,268.0 L593.0,259.0 L649.0,264.0 L700.0,283.0 L736.0,313.0 L757.0,355.0 L756.0,360.0 L674.0,361.0 L654.0,369.0 L636.0,385.0 L613.0,380.0 L563.0,385.0 L545.0,369.0 L525.0,361.0 L442.0,359.0 Z M500.0,742.0 L510.0,806.0 L526.0,859.0 L551.0,910.0 L580.0,948.0 L578.0,1054.0 L444.0,934.0 L478.0,868.0 L479.0,854.0 L465.0,840.0 L421.0,838.0 L433.0,800.0 L449.0,777.0 L471.0,757.0 Z M699.0,742.0 L728.0,757.0 L749.0,776.0 L775.0,823.0 L777.0,840.0 L734.0,840.0 L720.0,854.0 L721.0,868.0 L754.0,936.0 L620.0,1055.0 L619.0,948.0 L651.0,905.0 L671.0,864.0 L688.0,810.0 Z M542.0,691.0 L581.0,699.0 L618.0,699.0 L660.0,691.0 L656.0,741.0 L645.0,759.0 L621.0,776.0 L602.0,780.0 L578.0,776.0 L560.0,765.0 L543.0,741.0 L539.0,722.0 Z M510.0,93.0 L522.0,75.0 L548.0,53.0 L571.0,43.0 L603.0,39.0 L628.0,43.0 L651.0,53.0 L677.0,75.0 L688.0,95.0 L621.0,80.0 L569.0,81.0 Z M554.0,808.0 L586.0,819.0 L613.0,819.0 L647.0,809.0 L629.0,861.0 L601.0,908.0 L571.0,863.0 Z M688.0,399.0 L706.0,404.0 L715.0,413.0 L720.0,428.0 L715.0,446.0 L706.0,455.0 L691.0,460.0 L673.0,455.0 L664.0,446.0 L659.0,431.0 L664.0,413.0 L673.0,404.0 Z M508.0,399.0 L526.0,404.0 L535.0,413.0 L540.0,428.0 L535.0,446.0 L526.0,455.0 L511.0,460.0 L493.0,455.0 L484.0,446.0 L479.0,431.0 L484.0,413.0 L493.0,404.0 Z M760.0,1099.0 L800.0,1100.0 L800.0,1141.0 L788.0,1158.0 L771.0,1158.0 L761.0,1148.0 Z"
         fill="#000000"
         fill-rule="evenodd"
         id="path5" />
    </symbol>
    <symbol
       id="icon-omics-analysis"
       viewBox="0 0 1200 1200">
      <path
         d="M76.0,76.0 L71.0,82.0 L76.0,139.0 L89.0,180.0 L107.0,216.0 L135.0,256.0 L169.0,292.0 L236.0,343.0 L187.0,378.0 L146.0,417.0 L99.0,484.0 L81.0,528.0 L72.0,570.0 L71.0,620.0 L76.0,652.0 L98.0,713.0 L130.0,763.0 L181.0,816.0 L236.0,856.0 L169.0,907.0 L135.0,943.0 L110.0,978.0 L79.0,1048.0 L71.0,1092.0 L72.0,1119.0 L79.0,1124.0 L92.0,1119.0 L98.0,1072.0 L420.0,1072.0 L426.0,1118.0 L440.0,1124.0 L448.0,1116.0 L447.0,1086.0 L428.0,1017.0 L696.0,1017.0 L641.0,1067.0 L641.0,1080.0 L649.0,1085.0 L657.0,1083.0 L731.0,1017.0 L739.0,1003.0 L656.0,925.0 L648.0,924.0 L641.0,929.0 L641.0,942.0 L696.0,992.0 L416.0,992.0 L396.0,959.0 L365.0,922.0 L320.0,882.0 L282.0,856.0 L350.0,805.0 L399.0,749.0 L434.0,682.0 L449.0,611.0 L725.0,612.0 L669.0,663.0 L669.0,674.0 L681.0,680.0 L765.0,607.0 L765.0,592.0 L681.0,519.0 L669.0,525.0 L669.0,536.0 L725.0,587.0 L448.0,587.0 L434.0,517.0 L399.0,450.0 L350.0,394.0 L282.0,343.0 L320.0,317.0 L365.0,277.0 L396.0,240.0 L416.0,207.0 L698.0,207.0 L643.0,257.0 L643.0,270.0 L655.0,275.0 L739.0,201.0 L738.0,187.0 L654.0,114.0 L643.0,119.0 L642.0,131.0 L698.0,182.0 L428.0,182.0 L447.0,113.0 L448.0,83.0 L440.0,75.0 L426.0,81.0 L420.0,127.0 L97.0,126.0 L93.0,82.0 L88.0,76.0 Z M906.0,846.0 L901.0,852.0 L902.0,878.0 L919.0,928.0 L951.0,971.0 L992.0,1004.0 L947.0,1042.0 L933.0,1060.0 L934.0,1070.0 L940.0,1075.0 L1077.0,1073.0 L1098.0,1110.0 L931.0,1110.0 L931.0,1098.0 L918.0,1093.0 L912.0,1097.0 L904.0,1120.0 L902.0,1159.0 L909.0,1164.0 L922.0,1159.0 L926.0,1134.0 L1104.0,1135.0 L1107.0,1159.0 L1114.0,1164.0 L1124.0,1162.0 L1128.0,1157.0 L1127.0,1130.0 L1109.0,1079.0 L1082.0,1042.0 L1037.0,1004.0 L1074.0,975.0 L1106.0,935.0 L1125.0,889.0 L1127.0,850.0 L1121.0,845.0 L1107.0,850.0 L1103.0,875.0 L925.0,874.0 L922.0,850.0 L916.0,845.0 Z M98.0,559.0 L422.0,560.0 L421.0,640.0 L97.0,639.0 L93.0,602.0 Z M905.0,442.0 L901.0,448.0 L902.0,473.0 L919.0,523.0 L950.0,565.0 L991.0,601.0 L956.0,628.0 L923.0,669.0 L903.0,720.0 L903.0,755.0 L915.0,759.0 L922.0,754.0 L931.0,705.0 L956.0,662.0 L984.0,634.0 L1015.0,613.0 L1056.0,644.0 L1010.0,646.0 L1003.0,655.0 L1006.0,665.0 L1077.0,668.0 L1098.0,705.0 L1012.0,706.0 L1004.0,712.0 L1005.0,724.0 L1012.0,729.0 L1104.0,730.0 L1107.0,754.0 L1114.0,759.0 L1124.0,757.0 L1128.0,752.0 L1127.0,725.0 L1109.0,674.0 L1081.0,636.0 L1038.0,599.0 L1081.0,563.0 L1109.0,525.0 L1125.0,484.0 L1127.0,445.0 L1120.0,440.0 L1107.0,445.0 L1101.0,485.0 L1084.0,522.0 L1051.0,560.0 L1014.0,586.0 L973.0,555.0 L1019.0,553.0 L1026.0,545.0 L1024.0,535.0 L1018.0,531.0 L952.0,531.0 L931.0,494.0 L1017.0,493.0 L1025.0,487.0 L1025.0,476.0 L1017.0,470.0 L925.0,469.0 L922.0,445.0 L915.0,440.0 Z M905.0,37.0 L901.0,43.0 L904.0,79.0 L914.0,108.0 L933.0,140.0 L967.0,176.0 L1057.0,240.0 L942.0,241.0 L935.0,247.0 L937.0,260.0 L1077.0,263.0 L1098.0,300.0 L913.0,301.0 L905.0,308.0 L906.0,319.0 L913.0,324.0 L1104.0,325.0 L1107.0,349.0 L1113.0,354.0 L1123.0,353.0 L1128.0,347.0 L1125.0,310.0 L1116.0,283.0 L1099.0,253.0 L1057.0,209.0 L973.0,150.0 L1084.0,149.0 L1094.0,142.0 L1092.0,129.0 L952.0,126.0 L931.0,89.0 L1116.0,88.0 L1124.0,82.0 L1123.0,70.0 L1116.0,65.0 L925.0,64.0 L922.0,40.0 L915.0,35.0 Z M103.0,535.0 L123.0,488.0 L146.0,454.0 L373.0,454.0 L402.0,500.0 L415.0,533.0 Z M103.0,664.0 L415.0,666.0 L402.0,699.0 L373.0,745.0 L146.0,745.0 L123.0,711.0 Z M103.0,1048.0 L122.0,1003.0 L146.0,967.0 L374.0,968.0 L395.0,1000.0 L415.0,1046.0 Z M103.0,151.0 L415.0,153.0 L395.0,199.0 L374.0,231.0 L146.0,232.0 L122.0,196.0 Z M166.0,430.0 L209.0,390.0 L259.0,356.0 L311.0,391.0 L353.0,430.0 Z M166.0,769.0 L353.0,769.0 L311.0,808.0 L259.0,843.0 L209.0,809.0 Z M166.0,943.0 L208.0,904.0 L258.0,870.0 L299.0,895.0 L353.0,943.0 Z M166.0,256.0 L353.0,256.0 L312.0,294.0 L261.0,329.0 L208.0,295.0 Z M931.0,899.0 L1098.0,899.0 L1077.0,936.0 L952.0,936.0 Z M972.0,959.0 L1057.0,959.0 L1014.0,991.0 Z M893.0,1101.0 L878.0,1096.0 L836.0,1116.0 L831.0,1129.0 L838.0,1137.0 L849.0,1136.0 L890.0,1116.0 Z M837.0,1057.0 L839.0,1068.0 L890.0,1085.0 L902.0,1077.0 L902.0,1069.0 L895.0,1062.0 L851.0,1049.0 L841.0,1051.0 Z M877.0,1005.0 L871.0,1014.0 L873.0,1022.0 L904.0,1056.0 L918.0,1058.0 L924.0,1050.0 L922.0,1041.0 L890.0,1006.0 Z M1056.0,1049.0 L973.0,1049.0 L1015.0,1018.0 Z"
         fill="#000000"
         fill-rule="evenodd"
         id="path6" />
    </symbol>
  </defs>
  <!-- Header -->
  <rect
     x="0"
     y="0"
     width="896.02209"
     height="56.1"
     fill="#186f94"
     id="rect6"
     style="fill:#205a86;fill-opacity:1" />
  <text
     class="font"
     x="448.01099"
     y="36"
     text-anchor="middle"
     font-size="24px"
     fill="#ffffff"
     font-weight="700"
     id="text6">A researcher user journey for Australian human omics data</text>
  <!-- Stage banners -->
  <polygon
     points="15,69.8 185,69.8 185,104 100,112.5 15,104"
     fill="#ec0078"
     id="polygon6"
     style="fill:#ed087c;fill-opacity:1" />
  <polygon
     points="192.5,69.8 362,69.8 362,104 277,112.5 192.5,104"
     fill="#b7198f"
     id="polygon7"
     style="fill:#b21e8d;fill-opacity:1" />
  <polygon
     points="369.5,69.8 539,69.8 539,104 454,112.5 369.5,104"
     fill="#5cc0b2"
     id="polygon8"
     style="fill:#5ac3b1;fill-opacity:1" />
  <polygon
     points="546.5,69.8 716,69.8 716,104 631,112.5 546.5,104"
     fill="#2eb67d"
     id="polygon9"
     style="fill:#2cb77c;fill-opacity:1" />
  <polygon
     points="723.5,69.8 893,69.8 893,104 808,112.5 723.5,104"
     fill="#ffa31a"
     id="polygon10"
     style="fill:#f49f1d;fill-opacity:1" />
  <text
     class="font"
     x="100"
     y="93.5"
     text-anchor="middle"
     font-size="18.5"
     fill="#fff"
     font-weight="700"
     id="text10">EXPLORE</text>
  <text
     class="font"
     x="277"
     y="93.5"
     text-anchor="middle"
     font-size="18.5"
     fill="#fff"
     font-weight="700"
     id="text11">SIGN IN</text>
  <text
     class="font"
     x="454"
     y="93.5"
     text-anchor="middle"
     font-size="18.5"
     fill="#fff"
     font-weight="700"
     id="text12">REQUEST</text>
  <text
     class="font"
     x="631"
     y="93.5"
     text-anchor="middle"
     font-size="18.5"
     fill="#fff"
     font-weight="700"
     id="text13">ACCESS</text>
  <text
     class="font"
     x="808"
     y="93.5"
     text-anchor="middle"
     font-size="18.5"
     fill="#fff"
     font-weight="700"
     id="text14">ANALYSE</text>
  <!-- Content background -->
  <rect
     x="0"
     y="119"
     width="896.02209"
     height="222.10498"
     fill="#eeeeee"
     id="rect14" />
  <!-- Flow connector paths -->
  <path
     class="flow"
     d="m 162.43133,308.95171 c 27.85792,22.10679 91.00251,11.53397 117.93182,-34.60193 9.28597,-16.3398 7.42877,-30.75728 7.42877,-36.52426"
     id="path14" />
  <path
     class="flow"
     d="M295 157c24-19 65-12 80 5"
     id="path15" />
  <path
     class="flow"
     d="M426 239c19 39 55 71 89 69"
     id="path16" />
  <path
     class="flow"
     d="m 674.97475,306.02525 c 13.92141,-0.98692 21.29156,-21.71229 24.56719,-66.12381 2.45672,-33.55536 7.37015,-42.43766 13.9214,-42.43766"
     id="path17" />
  <!-- Explore stage -->
  <use
     href="#icon-analytics-search"
     x="36"
     y="150"
     width="90"
     height="90"
     id="use17"
     transform="translate(-8,6)" />
  <path
     d="M22 245h84l25 18-15 10v35c0 9-7 16-16 16H22c-9 0-16-7-16-16v-47c0-9 7-16 16-16z"
     fill="#ec0078"
     id="path18"
     style="fill:#ed087c;fill-opacity:1" />
  <text
     class="bubbleText"
     x="61"
     y="257"
     text-anchor="middle"
     id="text23"><tspan
       x="61"
       dy="0"
       id="tspan18">This platform looks</tspan><tspan
       x="61"
       dy="12"
       id="tspan19">like it has some</tspan><tspan
       x="61"
       dy="12"
       id="tspan20">interesting data</tspan><tspan
       x="61"
       dy="12"
       id="tspan21">that could validate</tspan><tspan
       x="61"
       dy="12"
       id="tspan22">my own study’s</tspan><tspan
       x="61"
       dy="12"
       id="tspan23">findings.</tspan></text>
  <!-- Storage infrastructure -->
  <use
     href="#icon-cloud-data"
     x="158"
     y="128"
     width="62"
     height="62"
     id="use23"
     transform="translate(-6)" />
  <text
     class="label"
     x="182"
     y="199"
     text-anchor="middle"
     id="text25"><tspan
       x="182"
       dy="0"
       id="tspan24">Data storage</tspan><tspan
       x="182"
       dy="14"
       id="tspan25">infrastructure</tspan></text>
  <!-- Sign-in researcher -->
  <use
     href="#icon-researcher-dashboard"
     x="142"
     y="226"
     width="70"
     height="70"
     id="use25" />
  <text
     class="label"
     x="168.81035"
     y="305.72256"
     text-anchor="middle"
     id="text26">Researcher</text>
  <use
     href="#icon-researcher-dashboard"
     x="266"
     y="157"
     width="70"
     height="70"
     id="use26" />
  <text
     class="label"
     x="292.06583"
     y="235.67868"
     text-anchor="middle"
     id="text27">Researcher</text>
  <rect
     x="221"
     y="260"
     width="107"
     height="35"
     rx="5"
     fill="#b7198f"
     id="rect27"
     style="fill:#b21e8d;fill-opacity:1" />
  <text
     class="boxText"
     x="274.5"
     y="273"
     text-anchor="middle"
     id="text28"><tspan
       x="274.5"
       dy="0"
       id="tspan27">Authenticate with</tspan><tspan
       x="274.5"
       dy="13"
       id="tspan28">one set of credentials</tspan></text>
  <!-- Request stage -->
  <path
     d="M352 136h75c9 0 16 7 16 16v73c0 9-7 16-16 16h-75c-9 0-16-7-16-16v-49l-34-13 36-15c2-7 7-12 14-12z"
     fill="#5cc0b2"
     id="path28"
     style="fill:#5ac3b1;fill-opacity:1" />
  <text
     class="bubbleText"
     x="390"
     y="155"
     text-anchor="middle"
     id="text35"><tspan
       x="390"
       dy="0"
       id="tspan29">I like that I can see</tspan><tspan
       x="390"
       dy="12"
       id="tspan30">the study metadata</tspan><tspan
       x="390"
       dy="12"
       id="tspan31">then request access</tspan><tspan
       x="390"
       dy="12"
       id="tspan32">for the datasets. I’m</tspan><tspan
       x="390"
       dy="12"
       id="tspan33">going to apply for</tspan><tspan
       x="390"
       dy="12"
       id="tspan34">access to Data</tspan><tspan
       x="390"
       dy="12"
       id="tspan35">cohort A.</tspan></text>
  <rect
     x="391"
     y="261"
     width="117"
     height="35"
     rx="5"
     fill="#5cc0b2"
     id="rect35"
     style="fill:#5ac3b1;fill-opacity:1" />
  <text
     class="boxText"
     x="449.5"
     y="275"
     text-anchor="middle"
     id="text37"><tspan
       x="449.5"
       dy="0"
       id="tspan36">Submit data access</tspan><tspan
       x="449.5"
       dy="13"
       id="tspan37">application</tspan></text>
  <!-- Access stage -->
  <path
     d="M491 156h68c9 0 16 7 16 16v35c0 9-7 16-16 16h-40v22l-25-22h-3c-9 0-16-7-16-16v-35c0-9 7-16 16-16z"
     fill="#2eb67d"
     id="path37"
     style="fill:#2cb77c;fill-opacity:1" />
  <text
     class="bubbleText"
     x="525"
     y="168"
     text-anchor="middle"
     id="text42"><tspan
       x="525"
       dy="0"
       id="tspan38">This application</tspan><tspan
       x="525"
       dy="12"
       id="tspan39">looks complete and</tspan><tspan
       x="525"
       dy="12"
       id="tspan40">is compliant with</tspan><tspan
       x="525"
       dy="12"
       id="tspan41">our platform</tspan><tspan
       x="525"
       dy="12"
       id="tspan42">policies.</tspan></text>
  <use
     href="#icon-dac-database"
     x="526"
     y="232"
     width="58"
     height="58"
     id="use42" />
  <text
     class="label"
     x="558"
     y="306"
     text-anchor="middle"
     id="text44"><tspan
       x="558"
       dy="0"
       id="tspan43">Data Access</tspan><tspan
       x="558"
       dy="14"
       id="tspan44">Committee</tspan></text>
  <path
     d="M598 127h76c9 0 16 7 16 16v60c0 9-7 16-16 16h-44l-4 28-20-28h-8c-9 0-16-7-16-16v-60c0-9 7-16 16-16z"
     fill="#2eb67d"
     id="path44"
     style="fill:#2cb77c;fill-opacity:1" />
  <text
     class="bubbleText"
     x="636"
     y="145"
     text-anchor="middle"
     id="text50"><tspan
       x="636"
       dy="0"
       id="tspan45">Based on this</tspan><tspan
       x="636"
       dy="12"
       id="tspan46">application, I am</tspan><tspan
       x="636"
       dy="12"
       id="tspan47">comfortable sharing</tspan><tspan
       x="636"
       dy="12"
       id="tspan48">my data for the</tspan><tspan
       x="636"
       dy="12"
       id="tspan49">intended research</tspan><tspan
       x="636"
       dy="12"
       id="tspan50">purposes.</tspan></text>
  <use
     href="#icon-custodian"
     x="613"
     y="230"
     width="55"
     height="55"
     id="use50" />
  <text
     class="label"
     x="636"
     y="306"
     text-anchor="middle"
     id="text52"><tspan
       x="636"
       dy="0"
       id="tspan51">Data</tspan><tspan
       x="636"
       dy="14"
       id="tspan52">Custodian</tspan></text>
  <rect
     x="660"
     y="237"
     width="74"
     height="35"
     rx="5"
     fill="#2eb67d"
     id="rect52"
     style="fill:#2cb77c;fill-opacity:1" />
  <text
     class="boxText"
     x="697"
     y="251"
     text-anchor="middle"
     id="text54"><tspan
       x="697"
       dy="0"
       id="tspan53">Data access</tspan><tspan
       x="697"
       dy="13"
       id="tspan54">approved</tspan></text>
  <!-- Analyse stage -->
  <use
     href="#icon-researcher-dashboard"
     x="713"
     y="132"
     width="70"
     height="70"
     id="use54" />
  <text
     class="label"
     x="740.92712"
     y="212.16771"
     text-anchor="middle"
     id="text55">Researcher</text>
  <path
     d="M787 124h86c9 0 16 7 16 16v90c0 9-7 16-16 16h-70c-9 0-16-7-16-16v-43l-15-13 15-18z"
     fill="#ffa31a"
     id="path55"
     style="fill:#f49f1d;fill-opacity:1" />
  <text
     class="bubbleText"
     x="837"
     y="140"
     text-anchor="middle"
     id="text63"><tspan
       x="837"
       dy="0"
       id="tspan55">This data is exactly</tspan><tspan
       x="837"
       dy="12"
       id="tspan56">what I needed for</tspan><tspan
       x="837"
       dy="12"
       id="tspan57">my research. I work</tspan><tspan
       x="837"
       dy="12"
       id="tspan58">with it on the</tspan><tspan
       x="837"
       dy="12"
       id="tspan59">platform where my</tspan><tspan
       x="837"
       dy="12"
       id="tspan60">preferred tools are</tspan><tspan
       x="837"
       dy="12"
       id="tspan61">available. I can’t wait</tspan><tspan
       x="837"
       dy="12"
       id="tspan62">to perform some</tspan><tspan
       x="837"
       dy="12"
       id="tspan63">analysis.</tspan></text>
  <use
     href="#icon-omics-analysis"
     x="789"
     y="257"
     width="45"
     height="45"
     id="use63" />
  <text
     class="label"
     x="807"
     y="314"
     text-anchor="middle"
     id="text65"><tspan
       x="807"
       dy="0"
       id="tspan64">Study-specific data &amp;</tspan><tspan
       x="807"
       dy="14"
       id="tspan65">compute capability</tspan></text>
</svg>
